<svg    xmlns="http://www.w3.org/2000/svg"
  width="99"
  height="33"
  viewBox="0 0 369.6666666666667 97.61485759736304">
  <g
    transform="matrix(1.190425978721935,0,0,1.190425978721935,-17.852877128588492,-11.904330174497602)"
    fill="#000000">
    <rect
      xmlns="http://www.w3.org/2000/svg"
      x="25.249"
      y="20.252"
      transform="matrix(0.7071 0.7071 -0.7071 0.7071 46.463 -22.1737)"
      fill="#ffffff"
      stroke="#000000"
      stroke-width="2"
      stroke-linecap="round"
      stroke-linejoin="round"
      stroke-miterlimit="10"
      width="49.499"
      height="49.497" />
    <path
      xmlns="http://www.w3.org/2000/svg"
      stroke="#ffffff"
      stroke-width="2"
      stroke-linecap="round"
      stroke-linejoin="round"
      stroke-miterlimit="10"
      d="M49.999,69.395 l24.394-24.392L50,20.608L25.608,45.002L49.999,69.395z
      M63.785,45.002L49.999,58.787L36.214,45.002L50,31.215L63.785,45.002z" />
    <rect
      xmlns="http://www.w3.org/2000/svg"
      x="47.754"
      y="42.754"
      transform="matrix(-0.707 0.7072 -0.7072 -0.707 117.1804 41.4576)"
      fill="#000000"
      stroke="#ffffff"
      stroke-width="2"
      stroke-linecap="round"
      stroke-linejoin="round"
      stroke-miterlimit="10"
      width="4.496"
      height="4.497" />
    <polygon
      xmlns="http://www.w3.org/2000/svg"
      fill="#000000"
      stroke="#000000"
      stroke-width="2"
      stroke-linecap="round"
      stroke-linejoin="round"
      stroke-miterlimit="10"
      points=" 49.999,80 20,50.004 15.002,55 49.999,90 85,55 80,50 " />
  </g>
  <g
    transform="matrix(3.2881217223667356,0,0,3.2881217223667356,99.05425299242074,5.2577068096690525)"
    fill="#000000">
    <path
      d="M11.8 9.6 l1.6 0 c1.7 0 2.9 1.2 2.9 2.7 l0 7.7 l-2.5 0 l0 -7.3 c0 -0.6
      -0.4 -1 -1.1 -1 l-1.6 0 c-0.7 0 -1.1 0.4 -1.1 1 l0 7.3 l-2.5 0 l0 -7.3 c0
      -0.6 -0.4 -1 -1.1 -1 l-1.1 0 c-1.1 0 -1.6 1.1 -1.6 1.1 l0 7.2 l-2.5 0 l0
      -10.2 l1.7 0 l0.3 1.2 l0.2 0 s0.8 -1.4 2.3 -1.4 l1 0 c1.9 0 2.5 1.3 2.5
      1.3 l0.1 0 s0.6 -1.3 2.5 -1.3 z M27.2 20 l-1.7 0 l-0.3 -1.2 l-0.2 0 s-0.8
      1.4 -2.3 1.4 l-1.6 0 c-1.7 0 -2.9 -1.2 -2.9 -2.7 l0 -1.1 c0 -1.5 1.2 -2.7
      2.9 -2.7 l3.6 0 l0 -0.7 c0 -0.7 -0.4 -1.1 -1.1 -1.1 l-4.5 0 l0 -2.1 l5.2 0
      c1.7 0 2.9 1.2 2.9 2.7 l0 7.5 z M23.1 18.1 c1.1 0 1.6 -1.1 1.6 -1.1 l0
      -1.2 l-3 0 c-0.6 0 -1 0.4 -1 1 l0 0.3 c0 0.6 0.4 1 1 1 l1.4 0 z M32.1 9.8
      l0 10.2 l-2.5 0 l0 -10.2 l2.5 0 z M32.1 5.699999999999999 l0 2.8 l-2.5 0
      l0 -2.8 l2.5 0 z M37 20 l-2.5 0 l0 -10.2 l1.7 0 l0.3 1.2 l0.2 0 s0.8 -1.4
      2.3 -1.4 l1.8 0 c1.7 0 2.9 1.2 2.9 2.7 l0 7.7 l-2.5 0 l0 -7.3 c0 -0.6 -0.4
      -1 -1.1 -1 l-1.5 0 c-1.1 0 -1.6 1.1 -1.6 1.1 l0 7.2 z M48.8 6 l0 3.8 l3.8
      0 c1.7 0 2.9 1.2 2.9 2.7 l0 4.8 c0 1.5 -1.2 2.7 -2.9 2.7 l-6.3 0 l0 -14
      l2.5 0 z M53 16.9 l0 -4 c0 -0.6 -0.4 -1 -1.1 -1 l-3.1 0 l0 6 l3.1 0 c0.7 0
      1.1 -0.4 1.1 -1 z M57.8 6 l2.5 0 l0 10.9 c0 0.6 0.4 1 1.1 1 l0.6 0 l0 2.1
      l-1.3 0 c-1.72 0 -2.9 -1.2 -2.9 -2.7 l0 -11.3 z M63.099999999999994 12.3
      c0 -1.5 1.2 -2.7 2.9 -2.7 l3.4 0 c1.7 0 2.9 1.2 2.9 2.7 l0 5.2 c0 1.5 -1.2
      2.7 -2.9 2.7 l-3.4 0 c-1.7 0 -2.9 -1.2 -2.9 -2.7 l0 -5.2 z M69.8 17.1 l0
      -4.4 c0 -0.6 -0.4 -1 -1.1 -1 l-2 0 c-0.7 0 -1.1 0.4 -1.1 1 l0 4.4 c0 0.6
      0.4 1 1.1 1 l2 0 c0.7 0 1.1 -0.4 1.1 -1 z M76.6 12.9 l0 4 c0 0.6 0.4 1 1.1
      1 l4.6 0 l0 2.1 l-5.3 0 c-1.7 0 -2.9 -1.2 -2.9 -2.7 l0 -4.8 c0 -1.5 1.2
      -2.7 2.9 -2.7 l5.3 0 l0 1.5 l-0.6 0.6 l-4 0 c-0.7 0 -1.1 0.4 -1.1 1 z" />
  </g>
</svg>
